<svg width="55" height="29" viewBox="0 0 55 29" fill="none" xmlns="http://www.w3.org/2000/svg">
<rect x="1" y="22.4746" width="8.23391" height="1.19177" rx="0.595884" fill="#2F76B0"/>
<rect width="12.7822" height="1.17906" rx="0.589529" transform="matrix(0.418351 -0.908285 0.904043 0.42744 8.09656 23.3525)" fill="#2F76B0"/>
<rect width="12.9733" height="1.17963" rx="0.589815" transform="matrix(0.459461 -0.888198 0.883202 0.468993 21.134 27.9971)" fill="#2F76B0"/>
<rect width="18.5133" height="1.17978" rx="0.589889" transform="matrix(0.469604 0.882877 0.877691 -0.479226 12.9722 12.1992)" fill="#2F76B0"/>
<rect width="7.92868" height="1.18066" rx="0.590332" transform="matrix(0.526156 0.850388 0.844131 -0.536136 26.5361 17.1348)" fill="#2F76B0"/>
<rect x="30.4054" y="22.4746" width="5.88136" height="1.19177" rx="0.595884" fill="#2F76B0"/>
<path d="M37.4568 22.7322L37.8988 15.0425L44.3405 19.2766L37.4568 22.7322Z" stroke="#2F76B0" stroke-width="1.18881" stroke-linecap="round" stroke-linejoin="round"/>
<rect width="1.93253" height="1.4884" transform="matrix(-0.829291 -0.558817 0.559583 -0.828774 38.7147 22.4258)" fill="#2F76B0"/>
<rect x="44.3615" y="19.2627" width="7.72608" height="16.96" transform="rotate(-146.684 44.3615 19.2627)" stroke="#2F76B0" stroke-width="1.18881" stroke-linecap="round" stroke-linejoin="round"/>
</svg>
