<svg width="8" height="11" viewBox="0 0 8 11" fill="none" xmlns="http://www.w3.org/2000/svg">
<g clip-path="url(#clip0)">
<path d="M1.23859 4.72461V8.59239C1.23859 8.79716 1.40459 8.96317 1.60937 8.96317H2.52818C2.76089 8.96317 2.93396 8.7485 2.9134 8.51669C2.67787 5.86108 5.35264 5.85653 5.03052 8.50303C5.00176 8.73931 5.17605 8.96317 5.41407 8.96317H6.31738C6.52216 8.96317 6.68816 8.79716 6.68816 8.59239V4.72461" stroke="#2F76B0" stroke-width="0.741568" stroke-linejoin="round"/>
<path d="M0.5 5.5L3.73782 2.26218C3.88262 2.11738 4.11738 2.11738 4.26218 2.26218L7.5 5.5" stroke="#2F76B0" stroke-width="0.741568" stroke-linecap="round" stroke-linejoin="round"/>
<path d="M1.24158 3.11297C1.24158 2.90819 1.40758 2.74219 1.61236 2.74219V2.74219C1.81714 2.74219 1.98315 2.90819 1.98315 3.11297V3.48376C1.98315 3.89331 1.65113 4.22532 1.24158 4.22532V4.22532V3.11297Z" fill="#2F76B0"/>
</g>
<defs>
<clipPath id="clip0">
<rect width="8" height="11" fill="white"/>
</clipPath>
</defs>
</svg>
