<svg width="8" height="11" viewBox="0 0 8 11" fill="none" xmlns="http://www.w3.org/2000/svg">
<mask id="path-1-inside-1" fill="white">
<path fill-rule="evenodd" clip-rule="evenodd" d="M4.37447 7.375C4.28876 6.89427 4.22727 6.37043 4.22727 5.8125C4.22727 5.05097 4.34182 4.30544 4.47615 3.625H5.36364C5.86571 3.625 6.27273 3.21799 6.27273 2.71591V1.40909C6.27273 0.907014 5.86571 0.5 5.36364 0.5H4.22727C2.72104 0.5 1.5 2.73858 1.5 5.5C1.5 8.26142 2.72104 10.5 4.22727 10.5H5.36364C5.86571 10.5 6.27273 10.093 6.27273 9.59091V8.28409C6.27273 7.78201 5.86571 7.375 5.36364 7.375H4.37447Z"/>
</mask>
<path d="M4.37447 7.375L3.47949 7.53456L3.61311 8.28409H4.37447V7.375ZM4.47615 3.625V2.71591H3.72899L3.58428 3.44893L4.47615 3.625ZM3.31818 5.8125C3.31818 6.43699 3.387 7.0158 3.47949 7.53456L5.26945 7.21544C5.19052 6.77273 5.13636 6.30387 5.13636 5.8125H3.31818ZM3.58428 3.44893C3.44539 4.15243 3.31818 4.96457 3.31818 5.8125H5.13636C5.13636 5.13738 5.23825 4.45845 5.36803 3.80107L3.58428 3.44893ZM4.47615 4.53409H5.36364V2.71591H4.47615V4.53409ZM5.36364 4.53409C6.36779 4.53409 7.18182 3.72006 7.18182 2.71591H5.36364L5.36364 2.71591V4.53409ZM7.18182 2.71591V1.40909H5.36364V2.71591H7.18182ZM7.18182 1.40909C7.18182 0.404938 6.36779 -0.409091 5.36364 -0.409091V1.40909L5.36364 1.40909H7.18182ZM5.36364 -0.409091H4.22727V1.40909H5.36364V-0.409091ZM2.40909 5.5C2.40909 4.24142 2.6893 3.14702 3.09689 2.39979C3.52322 1.61817 3.96279 1.40909 4.22727 1.40909V-0.409091C2.98553 -0.409091 2.06146 0.501117 1.50071 1.52915C0.921218 2.59155 0.590909 3.99715 0.590909 5.5H2.40909ZM4.22727 9.59091C3.96279 9.59091 3.52322 9.38183 3.09689 8.60021C2.6893 7.85298 2.40909 6.75858 2.40909 5.5H0.590909C0.590909 7.00285 0.921218 8.40845 1.50071 9.47085C2.06146 10.4989 2.98553 11.4091 4.22727 11.4091V9.59091ZM4.22727 11.4091H5.36364V9.59091H4.22727V11.4091ZM5.36364 11.4091C6.36779 11.4091 7.18182 10.5951 7.18182 9.59091H5.36364L5.36364 9.59091V11.4091ZM7.18182 9.59091V8.28409H5.36364V9.59091H7.18182ZM7.18182 8.28409C7.18182 7.27994 6.36779 6.46591 5.36364 6.46591V8.28409L5.36364 8.28409H7.18182ZM5.36364 6.46591H4.37447V8.28409H5.36364V6.46591Z" fill="#2F76B0" mask="url(#path-1-inside-1)"/>
</svg>
