<svg width="28" height="28" viewBox="0 0 28 28" fill="none" xmlns="http://www.w3.org/2000/svg">
<circle cx="14" cy="13.9896" r="4.89624" stroke="#2F76B0" stroke-width="1.40752"/>
<path d="M16.0962 2.6715V3.22294L16.6317 3.35483C17.7152 3.62174 18.7354 4.04987 19.6656 4.61257L20.1375 4.89803L20.5275 4.50804L21.234 3.80159C21.6881 3.34745 22.4244 3.34744 22.8786 3.80159L24.1985 5.12152C24.6526 5.57566 24.6526 6.31198 24.1985 6.76612L23.492 7.47259L23.102 7.86257L23.3875 8.33447C23.9502 9.26466 24.3783 10.2849 24.6452 11.3683L24.7771 11.9038H25.3285H26.1333C26.7756 11.9038 27.2962 12.4244 27.2962 13.0667V14.9333C27.2962 15.5756 26.7756 16.0962 26.1333 16.0962H25.3285H24.7771L24.6452 16.6317C24.3783 17.7152 23.9501 18.7354 23.3874 19.6656L23.102 20.1375L23.492 20.5275L24.1985 21.2341C24.6526 21.6882 24.6526 22.4245 24.1985 22.8786L22.8786 24.1986C22.4244 24.6527 21.6881 24.6527 21.234 24.1986L20.5274 23.492L20.1374 23.102L19.6655 23.3875C18.7353 23.9502 17.7151 24.3783 16.6317 24.6452L16.0962 24.7771V25.3285V26.1333C16.0962 26.7756 15.5756 27.2962 14.9333 27.2962H13.0667C12.4244 27.2962 11.9038 26.7756 11.9038 26.1333V25.3285V24.7771L11.3683 24.6452C10.2849 24.3783 9.26465 23.9502 8.33446 23.3875L7.86255 23.102L7.47257 23.492L6.76599 24.1986C6.31184 24.6527 5.57553 24.6527 5.12139 24.1986L4.62375 24.6962L5.12139 24.1986L3.80145 22.8787C3.34731 22.4245 3.34731 21.6882 3.80146 21.2341L4.50803 20.5275L4.89801 20.1375L4.61256 19.6656C4.04986 18.7354 3.62174 17.7152 3.35483 16.6317L3.22294 16.0962H2.6715H1.86667C1.22441 16.0962 0.703761 15.5756 0.703761 14.9333V13.0667C0.703761 12.4244 1.22441 11.9038 1.86667 11.9038H2.6715H3.22294L3.35483 11.3683C3.62174 10.2848 4.04987 9.26459 4.61257 8.33438L4.89803 7.86247L4.50804 7.47249L3.80147 6.76592C3.34733 6.31178 3.34733 5.57546 3.80147 5.12132L5.1214 3.80139C5.57554 3.34725 6.31186 3.34725 6.766 3.80139L7.47259 4.50798L7.86257 4.89796L8.33447 4.61251C9.26466 4.04984 10.2849 3.62173 11.3683 3.35483L11.9038 3.22294V2.6715V1.86667C11.9038 1.22441 12.4244 0.703761 13.0667 0.703761H14.9333C15.5756 0.703761 16.0962 1.22441 16.0962 1.86667V2.6715Z" stroke="#2F76B0" stroke-width="1.40752"/>
</svg>
