<svg width="22" height="20" viewBox="0 0 22 20" fill="none" xmlns="http://www.w3.org/2000/svg">
<path d="M18.9204 1H3.07957C1.93106 1 1 1.93106 1 3.07957V12.3558C1 13.5043 1.93106 14.4354 3.07957 14.4354H4.89329C5.12937 14.4354 5.37312 14.4827 5.37793 14.7187C5.3888 15.2527 5.17416 16.4706 4.92558 17.881L4.92492 17.8847C4.72136 19.0397 5.45683 19.6247 6.27604 18.7855C7.28455 17.7523 8.5225 16.2492 9.65466 15.0471C10.0296 14.6489 10.5567 14.4354 11.1036 14.4354H18.9204C20.0689 14.4354 21 13.5043 21 12.3558V3.07957C21 1.93106 20.0689 1 18.9204 1Z" fill="#F1A15B" stroke="#F1A15B" stroke-width="1.03979" stroke-linejoin="round"/>
</svg>
