<svg width="8" height="11" viewBox="0 0 8 11" fill="none" xmlns="http://www.w3.org/2000/svg">
<path d="M4.03326 2C4.70345 2 5.30218 2.14312 5.82946 2.42935C6.35674 2.71559 6.76575 3.11428 7.05649 3.62541C7.35216 4.13655 7.5 4.71413 7.5 5.35816C7.5 6.02264 7.37434 6.54399 7.12302 6.92223C6.8717 7.29536 6.52429 7.48193 6.08078 7.48193C5.84424 7.48193 5.64467 7.4257 5.48205 7.31325C5.31943 7.19569 5.20609 7.02957 5.14203 6.8149C4.84636 7.25958 4.40285 7.48193 3.81151 7.48193C3.47642 7.48193 3.17335 7.40015 2.90232 7.23658C2.63129 7.06791 2.41939 6.83534 2.26663 6.53888C2.11387 6.24242 2.03749 5.90507 2.03749 5.52683C2.03749 5.15371 2.11387 4.82147 2.26663 4.53012C2.41939 4.23366 2.63129 4.00365 2.90232 3.84009C3.17335 3.67141 3.47642 3.58708 3.81151 3.58708C4.07269 3.58708 4.30676 3.63308 4.51373 3.72508C4.72562 3.81709 4.90303 3.95254 5.04593 4.13143V3.63308C5.04593 3.31251 5.86642 3.28083 5.86642 3.63308V6.23987C5.86642 6.42388 5.90092 6.55677 5.9699 6.63855C6.04382 6.72034 6.13745 6.76123 6.25079 6.76123C6.45283 6.76123 6.6056 6.64366 6.70908 6.40854C6.81749 6.16831 6.8717 5.82329 6.8717 5.37349C6.8717 4.83169 6.75097 4.35378 6.5095 3.93976C6.27297 3.52574 5.94034 3.20372 5.51162 2.97371C5.08289 2.7437 4.59011 2.6287 4.03326 2.6287C3.47149 2.6287 2.97378 2.75137 2.54013 2.99671C2.10648 3.23695 1.77138 3.5743 1.53485 4.00876C1.29831 4.44323 1.18004 4.93647 1.18004 5.4885C1.18004 6.05075 1.29585 6.5491 1.52746 6.98357C1.76399 7.41804 2.09662 7.75538 2.52534 7.99562C2.95407 8.24096 3.44685 8.36364 4.0037 8.36364C4.24516 8.36364 4.48909 8.33552 4.73548 8.2793C4.9868 8.22307 5.22087 8.13874 5.4377 8.02629C5.82609 7.8587 6.05435 8.46739 5.63728 8.63965C5.40931 8.7338 5.1642 8.84666 4.86853 8.90799C4.57779 8.96933 4.28951 9 4.0037 9C3.3138 9 2.70275 8.84921 2.17054 8.54764C1.64326 8.24607 1.23178 7.8295 0.936114 7.29792C0.645371 6.76634 0.5 6.1632 0.5 5.4885C0.5 4.82402 0.647835 4.22855 0.943506 3.70208C1.23918 3.1705 1.65312 2.75392 2.18532 2.45235C2.72246 2.15078 3.33844 2 4.03326 2ZM3.96674 6.73822C4.28705 6.73822 4.54822 6.63089 4.75026 6.41621C4.95723 6.19642 5.06072 5.89996 5.06072 5.52683C5.06072 5.15882 4.95723 4.86747 4.75026 4.65279C4.54822 4.43812 4.28705 4.33078 3.96674 4.33078C3.6415 4.33078 3.37786 4.44067 3.17582 4.66046C2.97378 4.87514 2.87276 5.16393 2.87276 5.52683C2.87276 5.89485 2.97378 6.18875 3.17582 6.40854C3.37786 6.62833 3.6415 6.73822 3.96674 6.73822Z" fill="#2F76B0"/>
</svg>
